<?xml version="1.0" encoding="UTF-8"?><svg id="_イヤー_1" xmlns="http://www.w3.org/2000/svg" viewBox="0 0 1000 130"><defs><style>.cls-1{fill:#d9f8bf;}.cls-2{fill:#555;}.cls-3{isolation:isolate;}</style></defs><g id="BOOKTALK" class="cls-3" transform="translate(38.5 37)"><g class="cls-3"><path class="cls-2" d="M201.75,127.01c-1.18,0-2.21-.44-3.09-1.32s-1.32-1.91-1.32-3.09V7.93c0-1.29,.44-2.35,1.32-3.18,.88-.82,1.91-1.23,3.09-1.23h39.16c9.99,0,18.08,2.88,24.26,8.64,6.17,5.76,9.26,13.35,9.26,22.76,0,5.18-1.38,10.41-4.15,15.7-2.76,5.29-7.44,9.59-14.02,12.88,13.64,4.94,20.46,15.05,20.46,30.34,0,10.23-3.12,18.32-9.35,24.26-6.23,5.94-14.76,8.91-25.58,8.91h-40.04Zm4.41-8.64h35.63c8.47,0,14.93-2.12,19.4-6.35,4.47-4.23,6.7-10.29,6.7-18.17,0-3.06-.38-6.06-1.15-9-.77-2.94-2.35-5.67-4.76-8.2-2.41-2.53-6-4.53-10.76-6-4.76-1.47-11.14-2.21-19.14-2.21h-11.82c-1.3,0-2.35-.44-3.18-1.32-.82-.88-1.23-1.91-1.23-3.09,0-1.29,.41-2.35,1.23-3.18,.82-.82,1.88-1.23,3.18-1.23h11.82c8.23,0,14.79-1.23,19.67-3.7,4.88-2.47,8.41-5.58,10.58-9.35,2.17-3.76,3.26-7.64,3.26-11.64,0-6.94-2.24-12.44-6.7-16.49-4.47-4.06-10.47-6.09-17.99-6.09h-34.75V118.36Z"/><path class="cls-2" d="M342.16,129.3c-8.82,0-16.49-1.82-23.02-5.47-6.53-3.64-11.61-8.76-15.26-15.35-3.65-6.59-5.47-14.23-5.47-22.93V44.63c0-8.82,1.82-16.49,5.47-23.02,3.64-6.53,8.73-11.61,15.26-15.26,6.53-3.64,14.2-5.47,23.02-5.47s16.49,1.82,23.02,5.47c6.53,3.65,11.61,8.73,15.26,15.26,3.64,6.53,5.47,14.2,5.47,23.02v40.93c0,8.7-1.82,16.35-5.47,22.93-3.65,6.59-8.73,11.7-15.26,15.35-6.53,3.64-14.2,5.47-23.02,5.47Zm0-8.82c7.06,0,13.2-1.44,18.43-4.32,5.23-2.88,9.29-6.97,12.17-12.26,2.88-5.29,4.32-11.41,4.32-18.35V44.63c0-7.06-1.44-13.2-4.32-18.43-2.88-5.23-6.94-9.29-12.17-12.17-5.23-2.88-11.38-4.32-18.43-4.32s-13.2,1.44-18.43,4.32c-5.23,2.88-9.29,6.94-12.17,12.17-2.88,5.23-4.32,11.38-4.32,18.43v40.93c0,6.94,1.44,13.05,4.32,18.35,2.88,5.29,6.94,9.38,12.17,12.26,5.23,2.88,11.38,4.32,18.43,4.32Z"/><path class="cls-2" d="M452.94,129.3c-8.82,0-16.49-1.82-23.02-5.47-6.53-3.64-11.61-8.76-15.26-15.35-3.65-6.59-5.47-14.23-5.47-22.93V44.63c0-8.82,1.82-16.49,5.47-23.02,3.64-6.53,8.73-11.61,15.26-15.26,6.53-3.64,14.2-5.47,23.02-5.47s16.49,1.82,23.02,5.47c6.53,3.65,11.61,8.73,15.26,15.26,3.64,6.53,5.47,14.2,5.47,23.02v40.93c0,8.7-1.82,16.35-5.47,22.93-3.65,6.59-8.73,11.7-15.26,15.35-6.53,3.64-14.2,5.47-23.02,5.47Zm0-8.82c7.06,0,13.2-1.44,18.43-4.32,5.23-2.88,9.29-6.97,12.17-12.26,2.88-5.29,4.32-11.41,4.32-18.35V44.63c0-7.06-1.44-13.2-4.32-18.43-2.88-5.23-6.94-9.29-12.17-12.17-5.23-2.88-11.38-4.32-18.43-4.32s-13.2,1.44-18.43,4.32c-5.23,2.88-9.29,6.94-12.17,12.17-2.88,5.23-4.32,11.38-4.32,18.43v40.93c0,6.94,1.44,13.05,4.32,18.35,2.88,5.29,6.94,9.38,12.17,12.26,5.23,2.88,11.38,4.32,18.43,4.32Z"/><path class="cls-2" d="M525.97,129.3c-1.18,0-2.21-.41-3.09-1.23-.88-.82-1.32-1.82-1.32-3V5.46c0-1.29,.44-2.38,1.32-3.26s1.91-1.32,3.09-1.32c1.29,0,2.35,.44,3.17,1.32,.82,.88,1.23,1.97,1.23,3.26V70.91L594.24,2.64c.82-.94,1.82-1.44,3-1.5,1.17-.06,2.17,.38,3,1.32,.94,.82,1.44,1.82,1.5,3,.06,1.18-.38,2.24-1.32,3.18l-41.28,44.45,44.81,69.5c.71,.94,.91,2.03,.62,3.26-.29,1.23-.91,2.14-1.85,2.73-1.06,.7-2.2,.91-3.44,.62-1.23-.3-2.15-.91-2.73-1.85l-43.57-67.56-22.58,24.17v41.1c0,1.18-.41,2.18-1.23,3-.82,.82-1.88,1.23-3.17,1.23Z"/><path class="cls-2" d="M666.03,129.48c-1.29,0-2.38-.41-3.26-1.23-.88-.82-1.32-1.82-1.32-3V12.34h-38.28c-1.18,0-2.18-.44-3-1.32-.82-.88-1.23-1.91-1.23-3.09s.41-2.2,1.23-3.09c.82-.88,1.82-1.32,3-1.32h85.38c1.17,0,2.21,.44,3.09,1.32,.88,.88,1.32,1.91,1.32,3.09s-.44,2.21-1.32,3.09-1.91,1.32-3.09,1.32h-38.28V125.24c0,1.18-.41,2.17-1.23,3-.82,.82-1.82,1.23-3,1.23Z"/><path class="cls-2" d="M711.37,128.42c-1.18-.35-2-1.09-2.47-2.2-.47-1.12-.47-2.26,0-3.44L753.18,3.35c.82-1.88,2.23-2.82,4.23-2.82s3.41,.94,4.23,2.82l44.45,119.42c.47,1.18,.44,2.32-.09,3.44-.53,1.12-1.38,1.85-2.56,2.2-1.06,.47-2.15,.44-3.26-.09-1.12-.53-1.91-1.38-2.38-2.56l-40.4-108.13-24.52,65.45h33.34c1.18,0,2.18,.44,3,1.32,.82,.88,1.23,1.97,1.23,3.26,0,1.18-.41,2.18-1.23,3s-1.82,1.23-3,1.23h-36.69l-12.52,33.87c-.47,1.18-1.23,2.03-2.29,2.56-1.06,.53-2.18,.56-3.35,.09Z"/><path class="cls-2" d="M830.62,127.01c-1.18,0-2.21-.44-3.09-1.32s-1.32-1.91-1.32-3.09V5.46c0-1.29,.44-2.38,1.32-3.26s1.91-1.32,3.09-1.32c1.29,0,2.35,.44,3.17,1.32,.82,.88,1.23,1.97,1.23,3.26V118.19h57.51c1.29,0,2.35,.41,3.18,1.23,.82,.82,1.23,1.88,1.23,3.18,0,1.18-.41,2.2-1.23,3.09-.82,.88-1.88,1.32-3.18,1.32h-61.92Z"/><path class="cls-2" d="M921.28,129.3c-1.18,0-2.21-.41-3.09-1.23-.88-.82-1.32-1.82-1.32-3V5.46c0-1.29,.44-2.38,1.32-3.26s1.91-1.32,3.09-1.32c1.29,0,2.35,.44,3.17,1.32,.82,.88,1.23,1.97,1.23,3.26V70.91L989.55,2.64c.82-.94,1.82-1.44,3-1.5,1.17-.06,2.17,.38,3,1.32,.94,.82,1.44,1.82,1.5,3,.06,1.18-.38,2.24-1.32,3.18l-41.28,44.45,44.81,69.5c.71,.94,.91,2.03,.62,3.26-.29,1.23-.91,2.14-1.85,2.73-1.06,.7-2.2,.91-3.44,.62-1.23-.3-2.15-.91-2.73-1.85l-43.57-67.56-22.58,24.17v41.1c0,1.18-.41,2.18-1.23,3-.82,.82-1.88,1.23-3.17,1.23Z"/></g></g><g><path class="cls-1" d="M100.95,125.56c-22.59,0-42.97-10.53-51.89-26.81l-3.88-7.07,.39,.04c-4.35-.97-8.6-2.35-12.67-4.14-6.9,3.71-14.63,5.7-22.49,5.78-2.54,0-4.77-1.48-5.73-3.76-.97-2.19-.54-4.81,1.13-6.63,2.77-3.13,5.15-6.56,7.1-10.25-5.52-6.69-8.6-15.02-8.74-23.76,0-24.58,25.36-44.52,56.53-44.52,27.11,0,49.82,15.08,55.29,35.13l-.23-1.7,6.27,1.98c21.55,6.79,35.48,22.99,35.48,41.27-.13,8.81-3.22,17.15-8.75,23.83,1.95,3.69,4.33,7.14,7.11,10.26,1.61,1.74,2.06,4.36,1.09,6.62-.96,2.26-3.19,3.74-5.67,3.74h0c-7.9-.08-15.63-2.07-22.53-5.78-8.59,3.79-18.02,5.78-27.41,5.78h-.44Z"/><path class="cls-2" d="M60.72,8.62c28.92,0,52.36,18.02,52.36,40.27s-23.43,40.27-52.35,40.28c-.11,0-.22,0-.33,0-9.58,0-19.04-2.15-27.69-6.29-6.75,4.04-14.46,6.21-22.33,6.29h-.02c-.79,0-1.51-.47-1.82-1.21-.33-.74-.18-1.6,.38-2.19,3.65-4.12,6.69-8.74,9.01-13.74-6.01-6.23-9.42-14.5-9.56-23.16C8.37,26.64,31.8,8.62,60.72,8.62m60.07,35.21c19.09,6.02,32.56,20.44,32.56,37.28-.13,8.65-3.55,16.93-9.56,23.16,2.31,4.99,5.34,9.61,8.99,13.72,.55,.59,.69,1.45,.38,2.19-.31,.73-1.03,1.21-1.83,1.21h0c-7.87-.08-15.57-2.25-22.32-6.29-8.62,4.14-18.05,6.29-27.61,6.29-.14,0-.27,0-.41,0-21.7,0-40.32-10.17-48.25-24.64,2.65,.3,5.31,.46,7.98,.48,33.3,0,60.41-21.67,60.41-48.33,0-1.69-.1-3.38-.33-5.06M60.72,.25C44.89,.25,29.93,5.06,18.6,13.78,6.6,23,0,35.47,0,48.89v.13c.14,8.72,2.92,17.06,7.92,24.05-1.51,2.52-3.26,4.89-5.21,7.09-2.76,3.02-3.49,7.36-1.85,11.13,1.64,3.8,5.35,6.25,9.49,6.25h.07c7.88-.08,15.62-1.92,22.64-5.35,3.02,1.23,6.13,2.25,9.3,3.06l3.02,5.51c9.65,17.61,31.47,28.99,55.58,28.99h.41c9.29,0,18.62-1.84,27.24-5.35,7.02,3.43,14.75,5.27,22.6,5.35h.08c4.18,0,7.92-2.48,9.54-6.32,1.59-3.69,.86-8.03-1.86-11.05-1.95-2.2-3.69-4.57-5.2-7.09,5.01-6.99,7.79-15.34,7.93-24.06v-.13c0-20.14-15.07-37.9-38.41-45.26l-4.55-1.43c-2.98-7.78-8.39-14.85-15.91-20.64C91.5,5.06,76.54,.25,60.72,.25h0Z"/></g></svg>